<?xml version="1.0" standalone="no"?><!DOCTYPE svg PUBLIC "-//W3C//DTD SVG 1.1//EN" "http://www.w3.org/Graphics/SVG/1.1/DTD/svg11.dtd"><svg t="1521449820913" class="icon" style="" viewBox="0 0 1024 1024" version="1.1" xmlns="http://www.w3.org/2000/svg" p-id="642" xmlns:xlink="http://www.w3.org/1999/xlink" width="48" height="48"><defs><style type="text/css">@font-face { font-family: uc-nexus-iconfont; src: url("chrome-extension://pogijhnlcfmcppgimcaccdkmbedjkmhi/res/font_9qmmi8b8jsxxbt9.woff") format("woff"), url("chrome-extension://pogijhnlcfmcppgimcaccdkmbedjkmhi/res/font_9qmmi8b8jsxxbt9.ttf") format("truetype"); }
</style></defs><path d="M990.4 866.24l-215.36-203.2c47.04-69.12 72.96-151.68 72.96-237.44C848 192.64 658.56 3.2 425.6 3.2S3.2 192.64 3.2 425.6s189.44 422.4 422.4 422.4c36.48 0 72.64-4.48 107.52-13.76l-19.52-74.24c-28.48 7.36-58.24 11.2-88 11.2-190.72 0-345.6-154.88-345.6-345.6C80 234.88 234.88 80 425.6 80c190.72 0 345.6 154.88 345.6 345.6 0 102.4-45.12 199.04-123.84 264.96l49.28 58.88c10.24-8.64 20.16-17.6 29.44-27.2l211.52 199.68c15.36 14.4 39.68 13.76 54.4-1.6l0 0C1006.4 904.96 1005.76 880.64 990.4 866.24z" p-id="643"></path></svg>