<?xml version="1.0" standalone="no"?><!DOCTYPE svg PUBLIC "-//W3C//DTD SVG 1.1//EN" "http://www.w3.org/Graphics/SVG/1.1/DTD/svg11.dtd"><svg t="1521449923329" class="icon" style="" viewBox="0 0 1024 1024" version="1.1" xmlns="http://www.w3.org/2000/svg" p-id="2977" xmlns:xlink="http://www.w3.org/1999/xlink" width="48" height="48"><defs><style type="text/css">@font-face { font-family: uc-nexus-iconfont; src: url("chrome-extension://pogijhnlcfmcppgimcaccdkmbedjkmhi/res/font_9qmmi8b8jsxxbt9.woff") format("woff"), url("chrome-extension://pogijhnlcfmcppgimcaccdkmbedjkmhi/res/font_9qmmi8b8jsxxbt9.ttf") format("truetype"); }
</style></defs><path d="M1024.000341 512C1024.000341 229.6832 794.317141 0 512.000341 0S0.000341 229.6832 0.000341 512a508.9792 508.9792 0 0 0 85.981867 283.613867l-0.034133 0.3584 3.5328 5.1712c3.072 4.488533 6.382933 8.738133 9.591466 13.1072 1.297067 1.774933 2.577067 3.566933 3.908267 5.341866a516.625067 516.625067 0 0 0 80.9472 85.111467l4.2496 3.549867c5.085867 4.1472 10.222933 8.209067 15.4624 12.151466 2.116267 1.604267 4.266667 3.157333 6.4 4.727467 4.983467 3.652267 9.966933 7.2704 15.086933 10.734933 2.730667 1.860267 5.563733 3.601067 8.328534 5.410134 7.099733 4.608 14.267733 9.0624 21.572266 13.294933 5.085867 2.9696 10.1888 5.922133 15.394134 8.721067 3.140267 1.6896 6.3488 3.259733 9.5232 4.881066a507.050667 507.050667 0 0 0 25.326933 12.0832c6.536533 2.901333 13.1584 5.649067 19.831467 8.277334 2.065067 0.8192 4.113067 1.655467 6.1952 2.4576 18.312533 6.929067 37.12 12.868267 56.354133 17.681066 0.785067 0.2048 1.5872 0.3584 2.372267 0.546134a510.976 510.976 0 0 0 25.7536 5.597866c2.304 0.443733 4.608 0.836267 6.912 1.245867a510.2592 510.2592 0 0 0 51.8144 6.4512c2.696533 0.2048 5.376 0.4608 8.072533 0.6144 9.745067 0.512 19.541333 0.8704 29.422933 0.8704s19.677867-0.3584 29.422934-0.904533c2.696533-0.1536 5.376-0.426667 8.072533-0.6144 7.236267-0.529067 14.4384-1.160533 21.589333-1.9968a510.2592 510.2592 0 0 0 30.225067-4.4544c2.304-0.4096 4.608-0.802133 6.912-1.245867a510.976 510.976 0 0 0 25.7536-5.597867l2.372267-0.546133a507.067733 507.067733 0 0 0 56.354133-17.681067c2.082133-0.785067 4.1472-1.6384 6.229333-2.4576a531.9168 531.9168 0 0 0 28.381867-12.1344c5.649067-2.628267 11.229867-5.376 16.759467-8.209066 3.1744-1.621333 6.382933-3.208533 9.5232-4.881067 5.205333-2.798933 10.2912-5.751467 15.394133-8.721067 7.304533-4.2496 14.4896-8.686933 21.572267-13.294933 2.781867-1.809067 5.597867-3.549867 8.328533-5.410133 5.102933-3.464533 10.0864-7.082667 15.086933-10.734934 2.133333-1.570133 4.283733-3.1232 6.4-4.727466 5.2224-3.9424 10.376533-8.004267 15.4624-12.151467l4.2496-3.549867a512.443733 512.443733 0 0 0 80.930134-85.111466c1.3312-1.757867 2.594133-3.549867 3.908266-5.341867 3.191467-4.369067 6.519467-8.618667 9.591467-13.1072l3.5328-5.1712-0.034133-0.3584A508.893867 508.893867 0 0 0 1024.000341 512z m-34.133333 0c0 84.855467-22.340267 164.5568-61.2864 233.710933A232.8576 232.8576 0 0 0 705.041408 580.266667h-101.461333a6.2464 6.2464 0 0 1-6.2464-6.229334v-11.008c0-3.1232 2.542933-5.1712 4.7104-6.007466 109.892267-41.3184 178.432-212.718933 164.061866-332.5952-7.492267-62.429867-38.417067-118.2208-83.336533-158.634667C862.157141 134.690133 989.867008 308.667733 989.867008 512z m-93.218133 283.136l-4.164267 5.546667c-3.805867 5.000533-7.645867 9.966933-11.639467 14.813866l-1.245866 1.467734a483.208533 483.208533 0 0 1-44.561067 46.813866c-0.938667 0.8704-1.877333 1.757867-2.833067 2.6112-4.727467 4.283733-9.5744 8.448-14.472533 12.544l-4.642133 3.805867c-4.7616 3.874133-9.557333 7.68-14.455467 11.3664-1.655467 1.245867-3.362133 2.423467-5.034667 3.652267-2.816 2.065067-5.666133 4.061867-8.516266 6.058666V819.2h-34.133334v106.376533l-2.013866 1.160534c-4.352 2.491733-8.686933 4.9664-13.1072 7.304533-3.0208 1.604267-6.0928 3.157333-9.1648 4.7104-5.154133 2.594133-10.3424 5.102933-15.581867 7.509333-2.56 1.1776-5.102933 2.3552-7.68 3.4816-6.570667 2.8672-13.2096 5.597867-19.899733 8.174934-1.3824 0.529067-2.730667 1.109333-4.113067 1.621333-17.066667 6.382933-34.5088 11.810133-52.2752 16.213333-1.28 0.324267-2.577067 0.580267-3.857067 0.887467-7.355733 1.757867-14.779733 3.362133-22.237866 4.7616-2.218667 0.426667-4.437333 0.802133-6.673067 1.194667-6.621867 1.160533-13.277867 2.167467-19.968 3.037866-2.577067 0.341333-5.154133 0.699733-7.748267 0.989867-6.621867 0.768-13.277867 1.3312-19.968 1.826133-2.474667 0.170667-4.932267 0.426667-7.424 0.5632a452.266667 452.266667 0 0 1-54.459733 0.034134c-2.491733-0.136533-4.949333-0.392533-7.424-0.5632a484.573867 484.573867 0 0 1-19.968-1.826134c-2.594133-0.290133-5.1712-0.648533-7.748267-0.989866a516.4032 516.4032 0 0 1-19.968-3.037867c-2.218667-0.392533-4.4544-0.768-6.673066-1.194667a463.752533 463.752533 0 0 1-22.237867-4.778666l-3.84-0.887467a480.3072 480.3072 0 0 1-52.292267-16.213333c-1.3824-0.512-2.747733-1.092267-4.113066-1.621334-6.690133-2.577067-13.312-5.307733-19.882667-8.174933-2.577067-1.1264-5.137067-2.304-7.697067-3.4816a483.771733 483.771733 0 0 1-15.581866-7.509333c-3.072-1.553067-6.144-3.089067-9.1648-4.7104-4.420267-2.338133-8.772267-4.829867-13.1072-7.304534L273.067008 925.5936V819.2h-34.133333v84.616533a447.914667 447.914667 0 0 1-8.516267-6.058666c-1.672533-1.2288-3.3792-2.4064-5.034667-3.652267a490.769067 490.769067 0 0 1-14.4384-11.349333l-4.676266-3.822934c-4.898133-4.078933-9.728-8.2432-14.455467-12.526933l-2.8672-2.645333a480.785067 480.785067 0 0 1-44.544-46.7968l-1.245867-1.467734a487.8848 487.8848 0 0 1-11.639466-14.813866c-1.399467-1.8432-2.798933-3.6864-4.164267-5.546667-2.048-2.781867-4.027733-5.614933-6.007467-8.448A198.775467 198.775467 0 0 1 318.959275 614.4h49.425066L512.000341 757.998933 655.599275 614.4h49.425066a198.792533 198.792533 0 0 1 197.632 172.288c-1.979733 2.833067-3.9424 5.666133-6.007466 8.448zM435.046741 525.499733C353.433941 495.3088 290.133675 355.84 290.133675 256c0-2.184533 0.256-4.317867 0.3072-6.485333l12.4928-15.4112c28.177067-33.518933 76.270933-43.1104 119.671466-23.893334A135.338667 135.338667 0 0 0 477.867008 221.866667a135.7824 135.7824 0 0 0 119.944533-71.406934c54.306133 17.834667 102.775467 51.456 135.560534 93.832534 5.000533 104.106667-56.2176 248.029867-143.325867 280.7808-16.315733 6.144-26.845867 21.0432-26.845867 37.956266v11.008A40.430933 40.430933 0 0 0 603.563008 614.4h3.771733L512.000341 709.7344 416.665941 614.4h3.771734A40.430933 40.430933 0 0 0 460.800341 574.037333V563.2c0-16.827733-10.325333-31.982933-25.7536-37.700267zM512.683008 34.167467h0.5632c8.3456 0.0512 16.554667 0.512 24.405333 1.416533 84.6336 9.437867 155.767467 68.352 183.5008 146.5856a329.472 329.472 0 0 0-127.9488-68.727467l-14.677333-4.027733-5.6832 14.097067A102.007467 102.007467 0 0 1 477.867008 187.733333a101.614933 101.614933 0 0 1-41.4208-8.721066c-47.2064-20.8896-98.747733-15.240533-136.823467 12.458666a220.791467 220.791467 0 0 1 55.6544-92.501333c41.8816-41.796267 97.501867-64.802133 157.405867-64.802133zM341.026475 65.877333c-3.293867 2.9696-6.690133 5.768533-9.864534 8.925867A254.293333 254.293333 0 0 0 256.000341 256c0 113.134933 71.509333 266.120533 167.202134 301.499733 2.030933 0.768 3.464533 3.106133 3.464533 5.700267v10.837333a6.2464 6.2464 0 0 1-6.229333 6.229334H318.976341a232.8576 232.8576 0 0 0-223.556266 165.444266A474.8288 474.8288 0 0 1 34.133675 512C34.133675 308.736 161.741141 134.826667 341.026475 65.877333z" fill="" p-id="2978"></path></svg>